<svg xmlns="http://www.w3.org/2000/svg" version="1.0" preserveAspectRatio="xMidYMid meet" viewBox="383 6.62 1233.5 1233.57">

<g transform="translate(0.000000,1247.000000) scale(0.100000,-0.100000)" fill="currentColor" stroke="none">
<path d="M9770 12399 c-1144 -38 -2274 -408 -3230 -1057 -1056 -716 -1861 -1735 -2310 -2922 -54 -144 -160 -465 -160 -487 0 -10 23 -13 99 -13 l100 0 41 133 c234 746 626 1456 1140 2067 146 174 516 544 690 690 957 806 2114 1288 3343 1394 867 75 1747 -40 2553 -335 661 -241 1252 -583 1804 -1042 180 -150 558 -527 710 -707 514 -611 903 -1317 1140 -2067 l41 -133 100 0 c76 0 99 3 99 13 0 8 -25 92 -56 187 -501 1554 -1571 2823 -3024 3588 -776 408 -1731 663 -2570 687 -96 3 -202 7 -235 8 -33 2 -157 0 -275 -4z"/>
<path d="M3830 7220 l0 -160 140 0 140 0 0 -530 0 -530 -140 0 -140 0 0 -160 0 -160 455 0 456 0 -3 158 -3 157 -126 3 -126 3 -6 272 c-3 164 -12 323 -22 400 -9 71 -15 131 -12 133 2 2 129 -250 283 -561 l279 -565 111 0 111 0 292 588 c160 323 289 574 286 557 -33 -185 -38 -250 -42 -527 l-5 -298 -129 0 -129 0 0 -160 0 -160 460 0 460 0 0 160 0 160 -135 0 -135 0 0 530 0 530 135 0 135 0 0 160 0 160 -356 0 -356 0 -286 -580 c-157 -319 -289 -580 -292 -580 -3 0 -135 260 -295 578 l-290 577 -357 3 -358 2 0 -160z"/>
<path d="M8900 7220 l0 -160 140 0 140 0 0 -530 0 -530 -140 0 -140 0 0 -160 0 -160 465 0 465 0 0 160 0 160 -140 0 -140 0 0 422 c0 416 0 422 19 403 11 -11 252 -276 536 -590 493 -543 519 -570 551 -569 19 0 68 1 109 2 l75 2 0 695 0 695 130 0 130 0 0 160 0 160 -450 0 -450 0 0 -160 0 -160 135 0 135 0 0 -360 0 -361 -118 133 c-65 73 -272 307 -460 521 l-343 387 -324 0 -325 0 0 -160z"/>
<path d="M12750 7010 l0 -159 -112 -3 -113 -3 -3 -147 -3 -148 115 0 114 0 4 -257 c5 -294 14 -340 89 -453 104 -155 302 -221 529 -176 89 18 247 86 256 111 4 10 -92 245 -112 273 -2 2 -33 -11 -70 -29 -51 -25 -84 -34 -133 -37 -86 -4 -128 16 -158 78 -22 42 -23 56 -23 267 l0 223 160 0 160 0 0 150 0 150 -160 0 -160 0 0 160 0 160 -190 0 -190 0 0 -160z"/>
<path d="M11675 6869 c-191 -29 -367 -138 -468 -289 -58 -86 -89 -195 -88 -315 0 -181 47 -292 176 -420 129 -129 260 -183 460 -192 100 -4 135 -2 209 16 233 56 409 215 472 426 27 90 25 250 -3 340 -48 151 -164 283 -317 360 -50 25 -117 52 -150 60 -76 19 -216 26 -291 14z m221 -308 c50 -23 107 -78 134 -131 44 -86 44 -244 0 -335 -42 -87 -150 -155 -245 -155 -99 0 -195 63 -242 158 -26 52 -28 67 -28 167 0 100 2 115 27 161 31 59 102 126 150 141 55 18 158 15 204 -6z"/>
<path d="M14240 6873 c-249 -33 -450 -169 -544 -368 -45 -94 -57 -150 -57 -264 1 -173 41 -271 161 -392 58 -59 94 -85 160 -117 134 -66 190 -77 375 -76 144 0 169 3 248 27 105 32 190 74 275 134 60 42 62 46 49 66 -7 12 -42 68 -77 124 l-63 102 -41 -28 c-61 -42 -113 -66 -196 -92 -98 -30 -259 -33 -337 -6 -100 35 -172 111 -194 205 -4 17 -5 32 -4 32 2 0 43 -13 92 -29 326 -110 660 -36 760 167 23 48 28 70 28 137 0 67 -5 89 -28 136 -51 106 -157 182 -305 220 -76 19 -236 31 -302 22z m179 -293 c82 -23 108 -96 51 -144 -42 -34 -89 -46 -193 -46 -87 0 -227 24 -227 39 0 13 94 98 128 115 75 39 178 54 241 36z"/>
<path d="M15353 6865 c-175 -39 -290 -160 -301 -316 -9 -131 37 -228 143 -305 75 -53 156 -87 324 -138 141 -42 235 -86 251 -117 50 -92 -118 -134 -295 -75 -97 33 -155 66 -216 123 l-46 43 -77 -6 -76 -7 0 -193 0 -194 130 0 130 0 0 50 c0 28 2 50 4 50 2 0 30 -18 62 -39 91 -60 169 -83 304 -89 174 -6 289 31 385 123 66 65 90 124 90 225 0 73 -4 93 -28 142 -59 120 -183 198 -460 289 -178 58 -240 94 -235 136 2 14 16 35 31 47 24 18 43 21 120 21 82 0 99 -4 160 -33 48 -22 86 -50 126 -92 62 -65 71 -68 175 -54 l46 7 -2 191 -3 191 -130 0 -130 0 -3 -53 -3 -53 -35 30 c-99 88 -294 130 -441 96z"/>
<path d="M6540 6701 l0 -150 71 -3 72 -3 235 -438 235 -439 -20 -41 c-38 -78 -98 -143 -160 -173 -48 -24 -70 -29 -133 -29 -65 0 -85 5 -151 36 l-76 36 -71 -142 -71 -143 77 -40 c108 -56 180 -75 287 -76 239 -1 415 129 569 419 20 39 137 286 260 550 l223 480 67 3 66 3 0 150 0 149 -302 -2 -303 -3 -3 -132 -3 -133 77 0 c57 0 75 -3 71 -12 -11 -27 -229 -513 -232 -516 -2 -2 -224 471 -242 515 -3 9 17 13 74 15 l78 3 0 130 0 130 -347 3 -348 2 0 -149z"/>
<path d="M4070 4537 c0 -24 110 -356 170 -511 820 -2143 2777 -3660 5055 -3920 326 -38 824 -49 1135 -26 1196 88 2317 505 3265 1215 912 684 1597 1576 2032 2645 57 140 203 568 203 595 0 12 -17 15 -99 15 l-100 0 -41 -132 c-166 -527 -423 -1064 -730 -1523 -224 -335 -439 -595 -744 -901 -381 -380 -722 -646 -1176 -918 -165 -99 -538 -288 -710 -361 -908 -381 -1874 -534 -2847 -449 -995 85 -1958 423 -2788 977 -163 109 -435 314 -580 438 -165 141 -527 506 -665 669 -513 610 -906 1322 -1140 2068 l-41 132 -100 0 c-76 0 -99 -3 -99 -13z"/>
</g>
</svg>